<svg width="145.000305" height="36.000000" viewBox="0 0 145 36" fill="none" xmlns="http://www.w3.org/2000/svg" xmlns:xlink="http://www.w3.org/1999/xlink">
	<desc>
			Created with Pixso.
	</desc>
	<defs/>
	<path id="Vector" d="M27.21 0L27.21 35.3L19.61 35.3L19.61 32.89C17.91 34.8 15.51 36 12.1 36C5.5 36 0 30.2 0 22.7C0 15.2 5.5 9.39 12.1 9.39C15.51 9.39 18.01 10.6 19.61 12.5L19.61 0L27.21 0ZM19.61 22.7C19.61 18.89 17.11 16.5 13.6 16.5C10.1 16.5 7.6 18.89 7.6 22.7C7.6 26.5 10.1 28.89 13.6 28.89C17.11 28.8 19.61 26.5 19.61 22.7Z" fill="currentcolor" fill-opacity="1.000000" fill-rule="nonzero"/>
	<path id="Vector" d="M43.72 29.2C45.83 29.2 47.53 28.39 48.53 27.29L54.63 30.79C52.13 34.2 48.43 36 43.62 36C35.02 36 29.62 30.2 29.62 22.7C29.62 15.2 35.02 9.39 43.02 9.39C50.43 9.39 55.83 15.09 55.83 22.7C55.83 23.79 55.73 24.79 55.53 25.7L37.62 25.7C38.62 28.29 40.92 29.2 43.72 29.2ZM48.33 20.09C47.53 17.2 45.23 16.09 42.92 16.09C40.02 16.09 38.12 17.5 37.42 20.09L48.33 20.09Z" fill="currentcolor" fill-opacity="1.000000" fill-rule="nonzero"/>
	<path id="Vector" d="M82.15 10.1L72.84 35.3L64.24 35.3L54.93 10.1L63.34 10.1L68.64 26.1L73.95 10.1C73.95 10.1 82.15 10.1 82.15 10.1Z" fill="currentcolor" fill-opacity="1.000000" fill-rule="nonzero"/>
	<path id="Vector" d="M83.45 10.1L91.06 10.1L91.06 35.3L83.45 35.3L83.45 10.1Z" fill="currentcolor" fill-opacity="1.000000" fill-rule="nonzero"/>
	<path id="Vector" d="M93.66 22.7C93.66 15.2 99.36 9.39 107.07 9.39C111.97 9.39 116.28 12 118.48 15.89L111.87 19.7C110.97 17.89 109.17 16.89 106.97 16.89C103.67 16.89 101.27 19.29 101.27 22.7C101.27 26.2 103.67 28.5 106.97 28.5C109.17 28.5 111.07 27.39 111.87 25.7L118.48 29.5C116.38 33.39 112.07 36 107.07 36C99.36 36 93.66 30.2 93.66 22.7Z" fill="currentcolor" fill-opacity="1.000000" fill-rule="nonzero"/>
	<path id="Vector" d="M132.89 29.2C134.99 29.2 136.69 28.39 137.69 27.29L143.79 30.79C141.29 34.2 137.59 36 132.79 36C124.18 36 118.78 30.2 118.78 22.7C118.78 15.2 124.28 9.39 132.19 9.39C139.59 9.39 145 15.09 145 22.7C145 23.79 144.89 24.79 144.7 25.7L126.78 25.7C127.78 28.29 130.09 29.2 132.89 29.2ZM137.59 20.09C136.79 17.2 134.49 16.09 132.19 16.09C129.28 16.09 127.38 17.5 126.68 20.09L137.59 20.09Z" fill="currentcolor" fill-opacity="1.000000" fill-rule="nonzero"/>
	<path id="Vector" d="M83.45 0L83.45 10.1L91.06 0L83.45 0Z" fill="currentcolor" fill-opacity="1.000000" fill-rule="nonzero"/>
</svg>
